<?xml version="1.0" encoding="utf-8"?>
<!-- Generator: Adobe Illustrator 21.0.0, SVG Export Plug-In . SVG Version: 6.00 Build 0)  -->
<svg version="1.1" id="signature" xmlns="http://www.w3.org/2000/svg" xmlns:xlink="http://www.w3.org/1999/xlink" x="0px" y="0px"
	 viewBox="0 0 471.3 155.7" style="enable-background:new 0 0 471.3 155.7;" xml:space="preserve">
<style type="text/css">
	.st0{fill:none;stroke:#000000;stroke-linecap:round;stroke-miterlimit:10;}
</style>
<g>
	<path d="M152.1,93.3c-14.2,5.9-28.4,11.9-42.5,17.9c-14.1,6.1-28.3,12.1-41.8,19.5c-6.8,3.6-13.6,7.1-20.5,10.6
		c-6.9,3.5-13.8,6.9-20.9,9.9c-1.8,0.8-3.6,1.5-5.4,2.2c-1.8,0.7-3.6,1.3-5.6,1.8c-1.9,0.4-3.9,0.6-5.9,0.5c-2-0.2-4-0.6-5.8-1.7
		c-1.8-1.1-3.2-3-3.5-5.1c-0.2-1-0.2-2.1,0-3.1c0.2-1,0.4-2,0.7-2.9c1.4-3.8,3.7-7,6.1-10c4.9-5.9,10.1-11.7,15.7-17
		c5.6-5.3,11.6-10.3,17.9-14.8c6.3-4.5,12.8-8.6,19.5-12.5C67,84.7,73.8,81.2,80.8,78c7-3.2,14.2-6.1,21.6-8.5
		c3.7-1.2,7.4-2.3,11.2-3.1c3.8-0.8,7.7-1.4,11.6-1.2c2,0.1,4,0.4,5.9,1.1c0.9,0.4,1.9,0.9,2.6,1.6c0.8,0.7,1.4,1.6,1.8,2.6
		c0.8,2,0.7,4,0.4,6c-0.3,2-0.9,3.8-1.6,5.6c-1.5,3.6-3.4,7-5.4,10.2c-2.1,3.3-4.3,6.4-6.7,9.4c0,0-0.1,0-0.1,0c0,0,0-0.1,0-0.1
		c2.3-3.1,4.4-6.3,6.4-9.6c1.9-3.3,3.7-6.7,5.1-10.3c0.7-1.8,1.2-3.6,1.5-5.5c0.3-1.8,0.2-3.7-0.4-5.4c-0.3-0.8-0.9-1.5-1.5-2.1
		c-0.7-0.6-1.4-1-2.3-1.3c-1.7-0.6-3.6-0.9-5.4-0.9c-3.8-0.1-7.5,0.6-11.2,1.4c-3.7,0.8-7.4,1.9-11,3.1c-7.2,2.5-14.3,5.4-21.3,8.7
		c-27.7,12.9-53.9,30.1-73.3,54c-2.4,2.9-4.7,6-5.9,9.5c-0.3,0.9-0.5,1.8-0.7,2.6c-0.1,0.9-0.1,1.8,0,2.6c0.3,1.7,1.3,3.2,2.8,4.1
		c1.5,1,3.3,1.4,5.1,1.6c1.8,0.1,3.7,0,5.5-0.4c1.8-0.4,3.6-1,5.4-1.7c1.8-0.7,3.6-1.4,5.3-2.1c7.1-3,14-6.4,20.9-9.8
		c6.9-3.4,13.7-6.9,20.6-10.4l10.3-5.2c3.5-1.7,7-3.3,10.5-4.9c7-3.1,14.1-6.1,21.2-9.1c14.2-6,28.4-11.8,42.7-17.6
		c0.1,0,0.1,0,0.1,0.1C152.2,93.2,152.2,93.3,152.1,93.3z"/>
</g>
<g>
	<path d="M148.9,18c-7.2,16.2-14.5,32.4-21.8,48.6c-7.4,16.1-14.7,32.3-22.4,48.3c-1,2-2,4-3,6c-0.5,1-1.1,2-1.6,3
		c-0.6,1-1.1,1.9-1.7,2.8l-6.6,11.6c-1.1,1.9-2.3,3.8-3.5,5.7c-0.6,0.9-1.3,1.9-2,2.8c-0.3,0.5-0.7,0.9-1.1,1.4
		c-0.4,0.4-0.8,0.9-1.6,1.3c-0.1,0-0.2,0.1-0.3,0.1c-0.1,0-0.3,0.1-0.4,0.1c-0.2,0-0.4,0-0.6-0.1c-0.2-0.1-0.4-0.2-0.5-0.3
		c-0.6-0.5-0.6-1-0.7-1.3c-0.1-0.7-0.1-1.3-0.1-1.9c0.1-1.2,0.2-2.3,0.4-3.4c0.4-2.2,0.9-4.4,1.4-6.6c1.1-4.3,2.3-8.6,3.8-12.8
		c1.5-4.2,3.2-8.4,5.4-12.3c1.1-2,2.3-3.9,3.6-5.7c1.4-1.8,2.8-3.6,4.8-4.8c0.5-0.3,1.1-0.6,1.8-0.6c0.2,0,0.4,0,0.5,0.1
		c0.2,0.1,0.3,0.1,0.5,0.2c0.1,0.1,0.3,0.2,0.4,0.4l0.2,0.4c0.4,1.2,0.2,2.4,0,3.5c-0.2,1.1-0.4,2.2-0.7,3.3
		c-0.1,0.5-0.3,1.1-0.5,1.6c-0.1,0.1-0.1,0.3-0.2,0.4c-0.1,0.1-0.1,0.1-0.2,0.2c-0.1,0.1-0.3,0-0.3-0.1c-0.2-0.3-0.2-0.6-0.3-0.8
		c0-0.1,0-0.1,0.1-0.1c0.1,0,0.1,0,0.1,0.1l0,0c0.1,0.2,0.1,0.5,0.3,0.7c0,0.1,0.2-0.2,0.3-0.4c0.2-0.5,0.3-1,0.4-1.6
		c0.2-1.1,0.4-2.2,0.5-3.3c0.1-1.1,0.3-2.2-0.1-3.1c-0.2-0.4-0.5-0.6-0.9-0.6c-0.4,0-0.9,0.3-1.3,0.5c-1.7,1.2-3.1,2.9-4.4,4.7
		c-1.2,1.8-2.3,3.7-3.3,5.7c-3.9,7.9-6.5,16.3-8.5,24.9c-0.5,2.1-1,4.3-1.3,6.4c-0.2,1.1-0.3,2.1-0.4,3.2c0,0.5,0,1,0.1,1.4
		c0,0.2,0.1,0.3,0,0.1c-0.1-0.1-0.2-0.1-0.3-0.1c0,0,0,0,0,0c0,0,0,0,0,0c0.2-0.1,0.6-0.5,1-0.8c0.3-0.4,0.7-0.8,1-1.2
		c0.7-0.8,1.3-1.7,1.9-2.6c1.2-1.8,2.4-3.7,3.5-5.6l6.8-11.5c0.6-1,1.2-1.9,1.7-2.8c0.5-1,1.1-1.9,1.6-2.8c1-2,2.1-3.9,3-5.9
		c7.9-15.9,15.4-32,22.9-48c7.5-16.1,15-32.1,22.5-48.2c0-0.1,0.1-0.1,0.1,0C148.9,17.9,148.9,18,148.9,18z"/>
</g>
<g>
	<path d="M173.7,84c-4.4,4.9-8.7,9.7-13.1,14.5c-2.2,2.4-4.5,4.8-6.9,7c-1.2,1.1-2.5,2.1-3.8,3.1c-1.3,1-2.7,1.9-4.4,2.5
		c-0.8,0.3-1.8,0.6-2.9,0.2c-0.5-0.2-1-0.6-1.2-1.1c-0.3-0.5-0.4-0.9-0.5-1.4c-0.2-1.8,0-3.5,0.5-5.2c0.9-3.3,2.9-6.2,5.2-8.7
		c2.3-2.5,4.9-4.6,7.7-6.4c1.4-0.9,2.8-1.8,4.3-2.6c1.5-0.8,2.9-1.5,4.5-2.2l-0.1,0c0.8-0.4,1.6-0.7,2.5-1c0.9-0.3,1.8-0.5,2.8-0.4
		c0.5,0,1.1,0.2,1.6,0.6c0.5,0.4,0.8,1,0.9,1.5c0.2,1,0,1.9-0.2,2.8c-0.5,1.7-1.2,3.2-2,4.7c-0.8,1.5-1.7,2.9-2.6,4.3
		c0,0-0.1,0.1-0.1,0c0,0-0.1-0.1,0-0.1c0.7-1.5,1.5-3,2.1-4.6c0.6-1.5,1.2-3.1,1.5-4.7c0.1-0.8,0.2-1.6,0-2.2
		c-0.2-0.6-0.5-0.8-1.2-0.8c-1.3,0-3,0.7-4.3,1.4l0,0l-0.1,0c-1.4,0.7-2.8,1.5-4.2,2.3c-1.4,0.8-2.8,1.6-4.1,2.5
		c-2.7,1.8-5.2,3.7-7.4,6c-2.2,2.3-4.1,4.9-5,7.8c-0.4,1.5-0.7,3.1-0.6,4.5c0.1,0.7,0.4,1.3,0.8,1.4c0.5,0.2,1.2,0.1,1.9-0.1
		c1.4-0.5,2.8-1.3,4.1-2.3c1.3-0.9,2.6-1.9,3.8-3c1.2-1,2.5-2.1,3.6-3.2c1.2-1.1,2.3-2.3,3.4-3.5c4.5-4.7,9-9.4,13.5-14.2
		c0,0,0.1,0,0.1,0C173.7,83.9,173.7,84,173.7,84z"/>
</g>
<g>
	<path d="M182.6,81.2c-1.7,3.1-3.3,6.3-4.8,9.5c-0.4,0.8-0.7,1.6-1,2.4c-0.3,0.8-0.6,1.7-0.8,2.4c-0.1,0.4-0.1,0.9-0.1,1.3
		c0,0.2,0,0.4,0,0.6c0,0.2,0,0.4,0,0.4c0,0-0.1-0.2-0.2-0.2c-0.1,0,0,0,0,0c0.1-0.1,0.3-0.2,0.4-0.3c0.3-0.2,0.6-0.5,1-0.8
		c2.5-2.4,4.9-5.1,7.2-7.8c2.2-2.7,4.4-5.6,6.2-8.5l1.7,1.1c-1.6,2-3.2,4.1-4.4,6.3c-0.3,0.5-0.5,1.1-0.7,1.7
		c-0.1,0.3-0.1,0.5-0.1,0.8c0,0.1,0,0.2,0.1,0.3c0.1,0.1,0.1,0.2,0.2,0.3c0.2,0.2,0.3,0.3,0.6,0.3c0.2,0,0.5-0.1,0.7-0.2
		c0.5-0.3,1-0.8,1.4-1.3l0,0c0,0,0.1,0,0.1,0c0,0,0,0.1,0,0.1c-0.3,0.6-0.7,1.2-1.2,1.7c-0.3,0.2-0.6,0.5-1.1,0.5
		c-0.4,0-0.9-0.1-1.2-0.4c-0.2-0.1-0.3-0.3-0.4-0.4c-0.1-0.2-0.2-0.4-0.3-0.6c-0.1-0.4-0.1-0.8-0.1-1.2c0.1-0.7,0.3-1.4,0.6-2.1
		c0.5-1.3,1.2-2.5,1.9-3.6c0.7-1.1,1.4-2.2,2.3-3.3l1.7,1.1c-1.9,3.2-4.3,5.9-6.7,8.6c-2.5,2.6-4.9,5.2-7.7,7.6
		c-0.3,0.3-0.7,0.6-1.1,0.9c-0.2,0.1-0.4,0.3-0.7,0.4c-0.2,0.1-0.3,0.1-0.6,0.1c-0.1,0-0.4-0.1-0.5-0.2c-0.1-0.1-0.2-0.3-0.2-0.4
		c-0.1-0.4-0.1-0.6-0.1-0.9c0-0.2,0.1-0.5,0.1-0.7c0.1-0.5,0.1-0.8,0.2-1.3c0.2-1,0.6-1.8,1-2.6c0.4-0.8,0.8-1.6,1.2-2.4
		c1.7-3.2,3.5-6.2,5.3-9.3c0,0,0.1-0.1,0.1,0C182.6,81.1,182.6,81.1,182.6,81.2z"/>
</g>
<g>
	<path d="M199.4,78.2c-1.5,1.7-2.9,3.5-4,5.5c-0.5,1-1,2-1,3.1c0,0.5,0.2,1,0.5,1.3c0.3,0.3,0.7,0.4,1.2,0.3
		c0.9-0.2,1.9-0.9,2.7-1.6c0.8-0.7,1.6-1.5,2.4-2.3c1.5-1.7,2.9-3.4,4.3-5.3c1.4-1.8,2.6-3.7,3.9-5.6l1-1.4c0.3-0.4,0.7-1,0.7-1.1
		c0,0,0,0.1,0,0.2c0,0.2,0.3,0.6,0.6,0.6c0.4,0.1,0.2,0,0.2,0c-0.1,0-0.4,0.1-0.6,0.3c-0.4,0.2-0.8,0.6-1.2,0.9
		c-0.4,0.3-0.7,0.7-0.7,1c-0.1,0.5-0.2,1-0.2,1.5c0,1.1,0.1,2.1,0.3,3.2c0.5,2.2,1.4,4.3,2.4,6.3c0,0,0,0.1,0,0.1c0,0-0.1,0-0.1,0
		c-1.4-1.8-2.6-3.9-3.3-6.1c-0.4-1.1-0.6-2.3-0.7-3.5c0-0.6,0-1.2,0.1-1.9c0.2-0.8,0.6-1.4,1-1.9c0.4-0.5,0.9-0.9,1.5-1.3
		c0.3-0.2,0.6-0.4,1-0.5c0.2-0.1,0.4-0.2,1-0.1c0.4,0.1,0.8,0.6,0.8,0.9c0,0.3,0,0.5,0,0.6c-0.3,1-0.7,1.3-1,1.8
		c-0.3,0.5-0.7,0.9-1,1.4c-1.3,1.9-2.8,3.6-4.3,5.4c-1.5,1.8-3,3.5-4.6,5.1c-0.8,0.8-1.7,1.6-2.6,2.3c-0.9,0.7-1.9,1.4-3.2,1.7
		c-0.6,0.1-1.5-0.1-1.9-0.7c-0.4-0.6-0.6-1.2-0.6-1.8c0.1-1.3,0.6-2.3,1.2-3.3c1.2-2,2.7-3.7,4.3-5.4c0,0,0.1,0,0.1,0
		C199.4,78.1,199.4,78.1,199.4,78.2z"/>
</g>
<g>
	<path d="M237.2,60.9c-1.1,2.2-2.4,4.4-3.7,6.5c-1.4,2.1-2.8,4.2-4.5,6.1c-1.7,1.9-3.7,3.5-5.7,5l-0.8,0.6c-0.1,0.1-0.2,0.1-0.4,0.2
		c-0.1,0-0.3,0-0.4-0.1c-0.1-0.1-0.2-0.2-0.2-0.3c-0.1-0.3,0-0.5,0-0.7c0.1-0.7,0.3-1.3,0.5-1.9c0.4-1.2,0.9-2.4,1.5-3.5
		c0.6-1.1,1.2-2.3,1.8-3.4c0.7-1.1,1.5-2.2,2.6-3c1.1-0.8,2.6-1.3,4-0.9c0.7,0.2,1.5,0.5,1.9,1.3c0.2,0.4,0.3,1,0.2,1.3
		c0,0.3-0.1,0.7-0.1,1c-0.1,0.6-0.2,1.2-0.2,1.8c0,0.3,0,0.5,0.1,0.7c0.1,0.2,0,0.1,0.1,0.1c0.2,0,0.8-0.2,1.3-0.5
		c0.5-0.3,1-0.6,1.6-1c2.1-1.4,4-2.9,6-4.5c1-0.8,1.9-1.6,2.8-2.4c0.9-0.8,1.8-1.7,2.5-2.6c0.2-0.2,0.3-0.4,0.4-0.6
		c0-0.1,0.1-0.4,0.1-0.6c0-0.4-0.1-0.8-0.3-1.1c-0.2-0.3-0.6-0.4-0.9-0.4c-0.2,0-0.4,0-0.6,0.1c-0.1,0-0.2,0.1-0.3,0.1
		c0,0-0.1,0.1-0.1,0.1c-0.3,0.3-0.6,0.8-0.9,1.3c-0.3,0.5-0.5,1-0.8,1.6c-0.5,1.1-0.8,2.2-1.1,3.4c-0.2,1.1-0.4,2.4-0.1,3.1
		c0.2,0.4,0.3,0.5,0.6,0.5c0.2,0,0.4,0,0.6,0c0.2,0,0.6-0.1,0.8-0.2c2.3-0.6,4.4-1.7,6.4-3.1c2-1.4,3.9-3,5.3-4.9
		c0.7-0.9,0.9-1.9,0.3-2.8c-0.5-0.9-1.6-1.6-2.6-2.1c-0.5-0.3-1.1-0.5-1.7-0.6c-0.6-0.1-1.2-0.2-1.8-0.3c-1.2-0.1-2.5-0.3-3.7-0.4
		c-0.1,0-0.1-0.1-0.1-0.1c0-0.1,0-0.1,0.1-0.1c1.3,0,2.5,0,3.8,0c0.6,0,1.3,0,1.9,0.1c0.7,0.1,1.3,0.3,1.9,0.5
		c1.2,0.5,2.4,1.2,3.3,2.3c0.4,0.6,0.7,1.4,0.6,2.1c0,0.8-0.4,1.5-0.7,2.1c-0.7,1.2-1.6,2.1-2.5,3c-0.9,0.9-1.9,1.8-2.9,2.5
		c-2.1,1.5-4.3,2.9-6.9,3.6c-0.3,0.1-0.6,0.2-1,0.2c-0.4,0.1-0.8,0.1-1.3,0c-0.5-0.1-0.9-0.3-1.3-0.6c-0.4-0.3-0.7-0.8-0.8-1.2
		c-0.3-0.8-0.4-1.6-0.3-2.3c0-0.7,0.1-1.4,0.3-2c0.3-1.3,0.7-2.6,1.3-3.8c0.3-0.6,0.6-1.2,0.9-1.8c0.4-0.6,0.7-1.2,1.3-1.7
		c0.2-0.1,0.3-0.3,0.6-0.4c0.2-0.1,0.4-0.2,0.6-0.2c0.4-0.1,0.8-0.2,1.2-0.2c0.9,0,1.8,0.3,2.4,1.1c0.6,0.7,0.8,1.6,0.7,2.4
		c0,0.2,0,0.4-0.1,0.6c0,0.1,0,0.2-0.1,0.3l-0.1,0.3c-0.2,0.4-0.4,0.7-0.6,1c-0.9,1.1-1.8,1.9-2.7,2.8c-1,0.8-1.9,1.7-2.9,2.4
		c-2,1.6-4,3.1-6.2,4.4c-0.5,0.3-1.1,0.7-1.7,1c-0.3,0.2-0.6,0.3-0.9,0.4c-0.3,0.1-0.7,0.2-1.3,0.2c-0.3,0-0.6-0.2-0.8-0.4
		c-0.2-0.2-0.3-0.5-0.4-0.7c-0.1-0.4-0.1-0.8-0.1-1.2c0-0.7,0.2-1.3,0.2-1.9c0-0.3,0.1-0.6,0.1-0.9c0-0.3,0-0.4-0.1-0.6
		c-0.2-0.3-0.6-0.6-1.1-0.7c-1-0.2-2.2,0.1-3.1,0.7c-1,0.6-1.7,1.6-2.4,2.6c-0.7,1-1.3,2.1-1.8,3.2c-0.6,1.1-1.1,2.2-1.5,3.4
		c-0.2,0.6-0.4,1.2-0.5,1.7c0,0.1,0,0.3,0,0.3c0,0,0-0.1-0.1-0.1c-0.1-0.1-0.2-0.1-0.2-0.1c-0.1,0,0,0,0,0l0.8-0.5
		c2-1.4,4-3,5.7-4.8c1.7-1.8,3.2-3.8,4.6-5.9c1.4-2.1,2.7-4.2,3.9-6.4c0,0,0.1-0.1,0.1,0C237.2,60.8,237.2,60.9,237.2,60.9z"/>
</g>
<g>
	<path d="M271.6,48.6c3.1-3.2,6.2-6.5,9.1-9.9c2.9-3.4,5.8-6.9,7.9-10.8c2.4-3.9,5.1-7.5,7.8-11.1c2.7-3.6,5.5-7.1,8.4-10.6l2.2-2.6
		c0.4-0.4,0.7-0.9,1.1-1.3c0.4-0.4,0.7-0.8,0.9-1.2c0-0.1,0.1-0.2,0.1-0.3c0-0.1,0-0.1,0.1,0c0.2,0.2,0.3,0.1,0.2,0.1
		c-0.1,0-0.2,0.1-0.3,0.1c-0.4,0.2-0.8,0.6-1.2,1c-0.8,0.7-1.5,1.6-2.2,2.4c-2.9,3.4-5.4,7.1-8,10.8c-5.2,7.4-10.3,14.8-15.1,22.3
		c-1.2,1.9-2.4,3.8-3.5,5.7c-0.3,0.5-0.5,1-0.8,1.4c-0.2,0.5-0.5,1-0.6,1.4c-0.1,0.5-0.2,1-0.2,1.4c0,0.1,0,0.1,0,0.1
		c0,0-0.1-0.2-0.2-0.2c-0.2,0,0,0,0.1-0.1c0.8-0.4,1.7-1.1,2.5-1.8c0.8-0.7,1.6-1.5,2.4-2.3c1.6-1.6,3.2-3.2,4.3-4.9
		c0.3-0.4,0.5-0.9,0.6-1.3c0.1-0.4,0.1-0.7,0-1c-0.1-0.1-0.1-0.1-0.1-0.1c0,0,0,0-0.2,0c-0.3,0-0.8,0.3-1.2,0.5
		c-0.3,0.2-0.7,0.5-1,0.9c-0.3,0.3-0.5,0.8-0.5,0.9c0,0.1,0,0,0,0c0,0,0.1,0.1,0.3,0.1c0.3,0.1,0.9,0.2,1.4,0.2
		c2.1,0.1,4.3-0.3,6.4-0.8c2.1-0.5,4.2-1.2,6.2-2.1c2-0.8,4-1.9,6-2.9c2-1,4-2,5.8-3.2c0.9-0.6,1.8-1.2,2.6-2
		c0.4-0.4,0.8-0.7,1.2-1.1c0.3-0.3,0.7-0.7,0.8-1.1c0.1-0.2,0.1-0.3,0.1-0.4c0,0,0-0.1-0.2-0.1c-0.3-0.2-0.8-0.2-1.3-0.2
		c-1,0-2.1,0.2-3.2,0.4c-2.2,0.4-4.4,1-6.4,1.8c-2,0.9-4,2-5.5,3.5c-0.7,0.8-1.4,1.7-1.6,2.7c-0.2,1,0.1,2.1,1,2.7
		c0.8,0.7,1.9,1,3,1.2c1.1,0.2,2.2,0.3,3.3,0.3c0.1,0,0.1,0,0.1,0.1c0,0.1,0,0.1-0.1,0.1c-1.1,0.1-2.3,0-3.4-0.1
		c-1.1-0.2-2.3-0.5-3.2-1.2c-0.5-0.4-0.9-0.8-1.1-1.4c-0.2-0.6-0.3-1.2-0.2-1.8c0.2-1.2,0.9-2.2,1.7-3.1c1.6-1.8,3.6-3,5.6-4
		c1-0.5,2.1-0.9,3.2-1.2c1.1-0.3,2.2-0.6,3.3-0.9c1.1-0.3,2.2-0.5,3.5-0.5c0.6,0,1.2,0,2,0.3c0.4,0.2,0.8,0.5,0.9,1.1
		c0.1,0.5,0,0.9-0.1,1.3c-0.3,0.7-0.7,1.2-1.1,1.6c-0.4,0.4-0.8,0.8-1.3,1.2c-0.9,0.8-1.8,1.5-2.7,2.2c-1.9,1.3-3.9,2.3-5.9,3.4
		c-2,1-4,2.1-6.1,3.1c-2.1,0.9-4.3,1.7-6.5,2.3c-2.2,0.6-4.5,1-7,0.9c-0.6,0-1.2-0.1-2-0.3c-0.3-0.1-0.8-0.3-1.1-0.7
		c-0.4-0.4-0.6-1-0.6-1.5c0.1-1,0.5-1.6,0.9-2.1c0.4-0.5,0.9-1,1.5-1.4c0.2-0.1,0.3-0.2,0.5-0.2c0.1-0.1,0.3-0.1,0.4-0.2
		c0.3-0.1,0.7-0.2,1.1-0.3c0.4-0.1,0.9,0,1.4,0.3c0.5,0.3,0.8,0.8,1,1.2c0.3,0.7,0.3,1.6,0.1,2.3c-0.2,0.7-0.5,1.3-0.8,1.8
		c-1.4,2-3,3.6-4.6,5.2c-0.8,0.8-1.6,1.6-2.5,2.3c-0.9,0.8-1.7,1.5-3,2.1c-0.3,0.1-0.7,0.4-1.5,0.1c-0.4-0.1-0.7-0.5-0.8-0.8
		c-0.1-0.3-0.1-0.5-0.1-0.7c0-0.8,0.2-1.3,0.3-1.9c0.2-0.7,0.5-1.2,0.8-1.7c0.3-0.5,0.6-1,0.9-1.5c1.2-2,2.4-3.8,3.6-5.7
		c5-7.5,10.2-14.9,15.4-22.2c2.7-3.6,5.2-7.3,8.2-10.8c0.7-0.9,1.5-1.7,2.4-2.5c0.4-0.4,0.9-0.8,1.4-1.1c0.1-0.1,0.3-0.2,0.5-0.2
		c0.1,0,0.2-0.1,0.4,0c0.2,0,0.4,0.1,0.6,0.3c0.3,0.4,0.2,0.7,0.2,0.9c0,0.2-0.1,0.4-0.2,0.5c-0.2,0.6-0.7,1.1-1.1,1.5
		c-0.4,0.4-0.7,0.8-1.1,1.2l-2.2,2.6c-2.9,3.4-5.7,6.9-8.5,10.5c-2.8,3.5-5.5,7.1-7.9,10.9C287,32.1,284,35.6,281,39
		c-3,3.4-6.1,6.6-9.3,9.8c0,0-0.1,0-0.1,0C271.6,48.7,271.6,48.7,271.6,48.6z"/>
</g>
<g>
	<path d="M318.3,30.3c3.4-3.1,7.1-5.9,10.9-8.4c3.9-2.5,8-4.6,12.1-6.6c2.1-1,4.2-1.9,6.4-2.8c2.2-0.8,4.5-1.5,6.8-1.8
		c1.2-0.2,2.3-0.3,3.5-0.3c0.6,0,1.2,0,2,0.4c0.4,0.2,0.8,0.7,0.8,1.2c0,0.5-0.1,0.9-0.3,1.2c-0.7,1.2-1.6,1.9-2.5,2.7
		c-0.9,0.8-1.8,1.5-2.8,2.2c-3.7,2.7-7.7,5.1-11.6,7.5c-3.9,2.4-7.9,4.7-11.9,7c-8.1,4.4-16.2,8.7-24.6,12.5c-0.1,0-0.1,0-0.1-0.1
		c0,0,0-0.1,0-0.1c7.8-4.8,15.8-9.4,23.6-14c4-2.3,7.9-4.6,11.9-6.9c4-2.3,7.9-4.5,11.7-7.1c0.9-0.6,1.8-1.3,2.7-2
		c0.8-0.7,1.7-1.5,2.2-2.3c0.1-0.2,0.2-0.4,0.2-0.4c0,0,0,0-0.1-0.1c-0.3-0.2-0.8-0.3-1.4-0.3c-1.1-0.1-2.2,0.1-3.3,0.2
		c-4.5,0.5-8.7,2.3-12.9,4.2c-4.2,1.9-8.3,3.9-12.2,6.2c-3.9,2.4-7.7,5-11.1,8c0,0-0.1,0-0.1,0C318.2,30.4,318.2,30.3,318.3,30.3z"
		/>
</g>
<g>
	<path d="M163.9,112c-18.2,9.2-36.5,18.4-54.5,27.9c-2.3,1.2-4.5,2.4-6.7,3.6c-2.2,1.3-4.5,2.4-6.5,4c-0.2,0.2-0.5,0.4-0.7,0.6
		c0,0-0.1,0.2,0,0c0-0.2-0.2-0.3-0.2-0.3c0,0,0,0,0,0c0.1,0,0.3-0.1,0.4-0.1c0.6-0.2,1.2-0.4,1.8-0.7c1.2-0.5,2.3-1,3.5-1.6l6.9-3.3
		c9.2-4.4,18.5-8.7,27.8-13c9.3-4.3,18.6-8.5,27.9-12.7l7-3.1l7-3l14-6.3c9.3-4.2,18.6-8.5,28-12.4c9.5-3.8,19-7.5,28.5-11.3
		c19-7.5,38-14.9,57.2-22c4.8-1.8,9.6-3.5,14.5-5.1c4.9-1.6,9.7-3.1,14.5-4.8c9.7-3.3,19.2-6.8,28.9-10.1
		c9.7-3.3,19.2-6.9,28.9-10.1c9.7-3.3,19.5-6.2,29.5-8.4c9.9-2.4,19.8-5.1,29.6-7.7l7.4-1.9c1.2-0.3,2.5-0.6,3.7-0.9
		c1.3-0.3,2.5-0.6,3.7-1c1.2-0.4,2.4-0.9,3.5-1.5c0.5-0.3,1.1-0.7,1.5-1.1c0.2-0.2,0.3-0.5,0.3-0.7c0-0.2-0.2-0.4-0.5-0.6
		c-1.1-0.6-2.4-0.6-3.6-0.7c-1.3-0.1-2.5,0-3.8,0c-0.1,0-0.1,0-0.1-0.1c0-0.1,0-0.1,0.1-0.1c1.3-0.1,2.6-0.1,3.8-0.1
		c1.3,0.1,2.6,0.1,3.8,0.7c0.3,0.2,0.6,0.4,0.7,0.9c0,0.4-0.2,0.7-0.4,1c-0.4,0.5-1,0.9-1.5,1.2c-1.1,0.7-2.3,1.2-3.5,1.6
		c-1.2,0.4-2.5,0.8-3.7,1.1c-1.2,0.3-2.5,0.6-3.7,1l-7.4,2.1c-9.8,2.8-19.6,5.7-29.5,8.2c-5,1.2-9.9,2.5-14.8,4
		c-4.9,1.5-9.7,3.1-14.5,4.7c-9.6,3.3-19.2,7-28.8,10.4c-9.6,3.4-19.2,6.9-28.9,10.1c-4.8,1.7-9.7,3.2-14.6,4.8
		c-4.8,1.6-9.6,3.4-14.4,5.1c-19.2,7-38.2,14.3-57.3,21.7c-9.5,3.7-19,7.4-28.5,11.1c-9.4,3.8-18.7,8.1-28.1,12.2l-14,6.2l-7,3
		l-7,3.1c-9.3,4.1-18.6,8.4-27.9,12.6c-9.3,4.2-18.6,8.5-27.8,12.8l-6.9,3.2c-1.2,0.5-2.3,1.1-3.5,1.5c-0.6,0.2-1.2,0.5-1.8,0.7
		c-0.2,0-0.3,0.1-0.5,0.1c-0.1,0-0.1,0-0.2,0c0,0-0.4-0.2-0.4-0.4c0.1-0.3,0.2-0.3,0.2-0.4c0.3-0.3,0.5-0.5,0.8-0.7
		c2.1-1.6,4.4-2.7,6.6-4c2.2-1.2,4.5-2.4,6.8-3.6c18.1-9.4,36.4-18.5,54.7-27.6c0,0,0.1,0,0.1,0C163.9,111.9,163.9,112,163.9,112z"
		/>
</g>
<path class="st0" d="M-63.2,26.7"/>
</svg>
